<?xml version="1.0" standalone="no"?>
<!DOCTYPE svg PUBLIC "-//W3C//DTD SVG 20010904//EN"
 "http://www.w3.org/TR/2001/REC-SVG-20010904/DTD/svg10.dtd">
<svg version="1.0" xmlns="http://www.w3.org/2000/svg"
 width="573.000000pt" height="573.000000pt" viewBox="0 0 573.000000 573.000000"
 preserveAspectRatio="xMidYMid meet">

<g transform="translate(0.000000,573.000000) scale(0.100000,-0.100000)"
fill="#000000" stroke="none">
<path d="M2783 5603 c43 -2 110 -2 150 0 40 1 5 3 -78 3 -82 0 -115 -2 -72 -3z"/>
<path d="M2598 5593 c6 -2 18 -2 25 0 6 3 1 5 -13 5 -14 0 -19 -2 -12 -5z"/>
<path d="M3088 5593 c6 -2 18 -2 25 0 6 3 1 5 -13 5 -14 0 -19 -2 -12 -5z"/>
<path d="M2518 5583 c7 -3 16 -2 19 1 4 3 -2 6 -13 5 -11 0 -14 -3 -6 -6z"/>
<path d="M2448 5573 c7 -3 16 -2 19 1 4 3 -2 6 -13 5 -11 0 -14 -3 -6 -6z"/>
<path d="M3268 5573 c7 -3 16 -2 19 1 4 3 -2 6 -13 5 -11 0 -14 -3 -6 -6z"/>
<path d="M2378 5563 c6 -2 18 -2 25 0 6 3 1 5 -13 5 -14 0 -19 -2 -12 -5z"/>
<path d="M2178 5523 c7 -3 16 -2 19 1 4 3 -2 6 -13 5 -11 0 -14 -3 -6 -6z"/>
<path d="M3518 5523 c7 -3 16 -2 19 1 4 3 -2 6 -13 5 -11 0 -14 -3 -6 -6z"/>
<path d="M2108 5503 c7 -3 16 -2 19 1 4 3 -2 6 -13 5 -11 0 -14 -3 -6 -6z"/>
<path d="M2028 5483 c7 -3 16 -2 19 1 4 3 -2 6 -13 5 -11 0 -14 -3 -6 -6z"/>
<path d="M2158 5483 c7 -3 16 -2 19 1 4 3 -2 6 -13 5 -11 0 -14 -3 -6 -6z"/>
<path d="M1812 5411 c-11 -7 -10 -9 3 -14 9 -4 14 -3 10 2 -3 5 1 12 7 14 7 3
9 6 3 6 -5 0 -16 -3 -23 -8z"/>
<path d="M1875 5410 c3 -5 8 -10 11 -10 2 0 4 5 4 10 0 6 -5 10 -11 10 -5 0
-7 -4 -4 -10z"/>
<path d="M1906 5401 c-4 -5 4 -7 16 -5 23 5 23 4 0 -6 -16 -7 -30 -7 -42 0
-24 13 -52 14 -32 1 10 -6 8 -10 -8 -14 -13 -3 -29 0 -37 9 -17 17 -23 17 -43
3 -12 -8 -10 -9 8 -4 14 4 22 2 22 -5 0 -7 -9 -14 -20 -17 -11 -3 -20 -9 -20
-14 0 -5 -7 -5 -17 -2 -10 4 -14 2 -10 -4 5 -7 0 -9 -13 -6 -11 3 -17 9 -14
14 3 5 1 9 -5 9 -20 0 -21 -19 0 -25 11 -4 19 -9 16 -11 -2 -3 -16 0 -31 6
-20 7 -25 7 -20 -2 5 -8 2 -9 -10 -5 -9 4 -15 3 -12 -2 3 -5 -1 -12 -10 -15
-8 -3 -12 -2 -9 4 3 6 -1 7 -9 4 -15 -6 -20 -18 -17 -37 1 -4 -8 -3 -19 3 -22
12 -65 -4 -55 -19 5 -10 -25 -24 -33 -16 -3 3 1 5 8 5 7 0 10 3 6 7 -4 4 -16
-3 -28 -17 -11 -14 -17 -19 -13 -12 10 19 1 15 -82 -35 -195 -118 -425 -309
-596 -495 -96 -104 -245 -300 -276 -363 -29 -57 -55 -99 -63 -103 -5 -2 -8
-13 -8 -23 0 -30 -31 -119 -41 -119 -5 0 -9 -9 -9 -20 0 -11 -4 -28 -9 -38 -5
-9 -17 -44 -26 -77 -8 -33 -22 -73 -30 -88 -8 -16 -15 -37 -15 -48 0 -10 -5
-19 -11 -19 -7 0 -9 -10 -5 -25 4 -16 -1 -38 -14 -62 -11 -21 -20 -54 -20 -73
0 -20 -7 -46 -16 -58 -8 -12 -13 -30 -9 -41 3 -10 -1 -31 -10 -47 -8 -16 -11
-30 -6 -32 4 -1 5 -22 0 -45 -4 -23 -8 -75 -9 -115 0 -40 -4 -81 -10 -91 -5
-10 -11 -58 -13 -107 -3 -49 -10 -129 -17 -179 -9 -64 -9 -90 -1 -93 14 -5 15
-89 1 -97 -16 -10 -12 -55 4 -55 11 0 14 -16 14 -72 0 -40 4 -92 11 -114 6
-23 11 -57 11 -75 -1 -60 9 -111 30 -152 12 -22 25 -74 30 -115 4 -41 13 -78
18 -81 15 -9 33 -61 26 -72 -3 -6 0 -16 6 -24 7 -8 10 -21 7 -28 -3 -7 1 -21
9 -32 8 -10 14 -27 14 -37 0 -10 4 -26 9 -36 5 -9 14 -29 21 -44 8 -18 18 -24
28 -20 12 4 14 1 9 -13 -4 -9 -2 -24 4 -31 6 -8 9 -21 5 -29 -3 -8 -1 -15 5
-15 5 0 12 -8 16 -17 14 -42 66 -158 72 -163 4 -3 15 -23 25 -45 31 -70 50
-105 58 -105 5 0 8 -7 8 -15 0 -8 9 -23 21 -34 12 -11 18 -24 15 -30 -5 -7 -1
-8 10 -4 13 5 16 3 11 -10 -4 -11 -1 -17 7 -17 8 0 19 -13 26 -30 7 -16 16
-27 21 -24 5 3 9 -4 9 -15 0 -12 8 -29 18 -39 9 -10 44 -49 77 -87 77 -88 94
-106 185 -185 41 -36 88 -78 105 -93 29 -27 107 -85 238 -175 34 -23 68 -40
75 -37 7 3 11 1 8 -4 -7 -11 113 -84 136 -83 10 0 21 -4 24 -10 5 -7 2 -8 -7
-4 -8 4 -5 0 6 -8 11 -9 25 -14 33 -11 7 2 11 1 8 -4 -3 -4 6 -13 20 -20 20
-9 24 -9 19 1 -4 7 -1 6 7 -3 7 -9 19 -14 27 -11 8 2 11 0 8 -5 -3 -5 10 -17
29 -26 41 -20 48 -21 38 -6 -4 7 -1 10 7 7 8 -3 13 -11 11 -17 -1 -8 3 -9 15
-3 18 9 90 -8 79 -18 -2 -3 20 -5 49 -5 30 1 51 -3 49 -7 -7 -12 8 -10 39 5
34 16 34 21 -6 52 -29 24 -32 30 -29 71 3 28 9 44 17 44 8 0 14 17 17 45 3 38
0 45 -17 48 -17 4 -17 4 3 6 13 0 32 -4 43 -9 11 -7 19 -7 19 -1 0 5 -14 13
-31 16 -24 6 -28 9 -18 17 11 8 10 9 -3 4 -22 -7 -91 17 -125 44 -14 11 -35
20 -45 20 -12 0 -18 5 -15 13 3 8 -4 14 -16 15 -12 0 -27 9 -34 18 -7 9 -17
13 -25 8 -7 -4 -10 -4 -6 1 14 15 -42 36 -65 24 -21 -10 -21 -10 -3 5 17 14
18 16 3 16 -9 0 -26 9 -37 20 -11 11 -26 17 -34 14 -8 -3 -17 -1 -21 5 -4 7 1
9 12 5 17 -5 17 -4 -1 8 -10 7 -38 28 -61 46 -24 17 -47 32 -50 32 -3 0 -31
19 -62 43 -30 23 -65 49 -77 57 -12 8 -33 25 -46 38 -23 21 -35 26 -53 23 -5
-1 -6 2 -3 7 5 9 -154 168 -166 165 -4 -2 -5 3 -2 10 2 7 -15 31 -38 53 -24
23 -58 63 -76 90 -19 27 -24 38 -12 24 158 -183 271 -299 374 -381 65 -52 270
-191 361 -244 312 -182 705 -284 1140 -296 101 -2 98 -4 76 32 -11 17 -48 65
-84 107 -36 43 -99 116 -139 163 -143 168 -334 385 -399 454 -96 101 -248 279
-243 284 2 2 22 -17 45 -42 22 -26 45 -46 52 -44 6 1 11 -5 12 -13 0 -9 8 -14
20 -12 16 3 17 1 6 -11 -8 -10 -9 -17 -1 -22 5 -3 10 -1 10 4 0 6 5 11 11 11
6 0 8 -7 5 -16 -4 -11 -2 -15 8 -11 11 4 13 1 9 -10 -5 -12 -1 -14 15 -9 11 4
23 2 27 -3 4 -7 -1 -8 -12 -4 -16 6 -16 5 -5 -10 8 -8 19 -14 27 -11 8 3 12
-1 12 -13 -1 -10 4 -17 11 -15 7 1 12 -5 10 -15 -2 -11 6 -19 22 -23 15 -4 24
-13 24 -22 -1 -9 4 -14 11 -12 14 6 109 -55 101 -64 -3 -3 -14 2 -24 11 -29
26 -38 20 -13 -7 13 -14 29 -22 36 -20 7 3 16 1 20 -5 3 -6 15 -11 25 -11 10
0 39 -16 64 -35 26 -19 53 -35 60 -35 8 0 18 -5 22 -11 3 -6 25 -19 48 -30 22
-11 52 -26 66 -34 14 -8 42 -15 63 -15 25 0 37 -4 37 -14 0 -10 16 -17 46 -22
25 -3 48 -13 51 -20 3 -8 18 -14 34 -14 16 0 29 -4 29 -9 0 -5 30 -11 68 -14
37 -2 87 -10 112 -17 44 -12 242 -17 383 -9 52 3 71 8 78 22 6 9 14 15 19 12
4 -3 6 5 3 17 -3 16 -2 19 5 10 6 -10 13 -1 22 33 20 70 23 46 4 -31 -36 -151
-65 -229 -92 -251 -47 -37 -14 -39 91 -3 178 60 484 228 707 388 58 41 108 78
112 81 4 3 -171 6 -388 6 -216 0 -394 -2 -394 -6 0 -3 -35 -2 -77 2 -43 4
-184 13 -313 19 -504 24 -705 75 -990 254 -103 64 -243 165 -248 178 -5 10
-29 10 -35 1 -2 -5 -2 -3 -1 4 2 7 -7 15 -18 19 -12 3 -31 15 -42 25 -11 11
-27 18 -35 17 -10 -2 -15 4 -15 14 1 10 -2 16 -6 13 -5 -3 -12 4 -15 16 -4 11
-13 18 -20 15 -7 -2 -15 4 -18 16 -3 11 -10 17 -16 13 -6 -3 -9 0 -6 7 3 7
-11 31 -32 53 -20 22 -67 103 -105 180 -37 77 -68 130 -68 117 0 -13 -6 -22
-15 -22 -9 0 -12 6 -9 15 4 8 1 15 -6 15 -12 0 -11 -14 3 -125 9 -70 -10 -15
-38 110 -104 459 -109 485 -97 525 24 81 89 235 97 230 5 -3 7 -52 4 -110 -5
-142 -1 -259 12 -279 7 -12 8 -5 4 24 -9 61 13 372 36 503 63 365 139 556 273
687 121 117 446 275 636 308 22 4 22 4 -5 6 -73 3 -331 -81 -500 -163 -160
-78 -277 -159 -570 -391 -347 -276 -717 -545 -832 -607 -69 -37 -62 -39 -109
29 -17 23 -55 163 -45 163 3 0 6 26 5 57 -1 41 0 45 3 16 2 -24 8 -43 13 -43
5 0 12 -19 15 -43 5 -34 11 -43 25 -42 26 2 110 88 110 112 0 11 3 23 7 27 16
15 43 101 33 104 -13 5 -13 82 0 82 6 0 10 22 10 49 0 31 6 55 15 65 17 17 20
42 5 51 -6 3 -10 12 -10 18 0 8 3 8 9 -1 6 -11 13 -7 29 16 15 21 18 32 10 40
-7 7 -7 20 1 43 6 17 11 50 11 73 1 23 7 59 15 80 8 24 11 46 5 55 -5 10 -3
19 5 26 30 22 23 95 -9 95 -6 0 -4 -5 4 -10 13 -8 12 -10 -4 -10 -20 0 -20 0
0 -16 18 -14 18 -15 -3 -4 -13 6 -23 16 -23 23 0 8 -3 8 -9 -2 -5 -7 -14 -10
-20 -7 -6 4 -11 0 -11 -11 0 -13 -2 -15 -9 -5 -6 11 -10 11 -18 0 -15 -18 -27
-60 -24 -78 2 -11 0 -12 -8 -4 -8 7 -7 23 6 56 16 45 18 46 82 64 36 10 83 18
103 18 21 1 38 4 38 7 0 12 513 54 1220 100 85 6 313 11 505 11 371 2 375 7
20 29 -154 10 -462 14 -1033 14 l-812 0 0 24 c0 30 75 163 146 258 55 74 64
90 42 77 -10 -6 -10 -5 -1 8 7 8 11 17 8 20 -3 2 2 5 10 5 12 0 12 -4 3 -16
-6 -9 12 7 42 36 44 43 51 54 41 66 -8 11 -9 17 -1 22 6 4 10 3 9 -2 -5 -29
11 -17 94 68 94 98 123 122 212 175 92 55 139 67 231 61 124 -9 205 -33 339
-100 202 -101 659 -361 1005 -572 47 -28 168 -98 270 -155 312 -175 501 -298
554 -360 51 -61 36 -23 -21 51 -161 212 -319 321 -918 637 -259 136 -390 208
-522 288 -92 55 -118 77 -151 123 -65 93 -83 133 -69 161 23 45 74 66 312 125
172 43 313 59 525 59 270 1 449 -29 613 -101 72 -32 93 -66 175 -288 139 -375
263 -794 351 -1195 75 -343 80 -468 28 -665 -19 -71 -55 -206 -80 -300 -25
-93 -62 -219 -81 -279 -34 -102 -39 -145 -12 -103 6 10 48 75 93 143 46 69 94
144 108 167 63 107 199 389 258 538 60 152 207 589 207 617 0 37 20 -4 59
-121 92 -281 360 -933 397 -968 13 -12 24 -28 24 -35 0 -19 -84 -89 -179 -147
-91 -57 -368 -210 -436 -242 -21 -10 -87 -40 -145 -68 -215 -101 -533 -214
-757 -268 -148 -36 -265 -47 -405 -37 -161 11 -485 71 -545 101 -15 8 -41 17
-58 21 l-30 6 22 -19 c12 -10 19 -22 15 -26 -4 -3 -2 -5 3 -4 6 2 84 -33 175
-78 184 -90 270 -122 412 -152 169 -36 365 -24 558 34 47 14 94 28 105 31 11
3 2 -5 -19 -19 -21 -13 -47 -22 -58 -20 -25 7 -23 -6 5 -18 20 -8 19 -9 -6 -4
-19 4 -26 2 -22 -5 3 -5 16 -10 28 -11 12 0 16 -3 9 -6 -6 -2 -10 -9 -6 -14 7
-12 72 -39 94 -39 10 0 23 -7 30 -15 7 -8 21 -15 31 -15 11 0 19 -4 19 -9 0
-5 18 -12 40 -16 22 -4 40 -11 40 -16 0 -5 10 -9 23 -9 12 0 35 -7 51 -15 15
-8 41 -15 56 -15 16 0 30 -5 32 -12 3 -8 25 -12 61 -12 35 1 58 -3 61 -11 3
-10 60 -26 101 -29 6 -1 13 -4 16 -9 10 -14 110 -46 167 -53 31 -3 63 -12 71
-18 11 -9 13 -6 7 14 -6 22 -5 22 4 7 9 -15 8 -22 -4 -36 -9 -10 -16 -22 -16
-27 -1 -20 -48 -66 -60 -59 -8 5 -11 4 -6 -3 3 -6 -2 -15 -11 -21 -10 -6 -13
-11 -7 -11 17 0 89 56 112 87 20 28 52 112 52 137 0 20 42 95 114 204 119 181
194 338 281 592 135 389 160 754 80 1140 -91 437 -350 887 -722 1255 -181 178
-321 277 -550 387 -139 67 -186 84 -403 148 -246 72 -643 112 -908 92 -159
-13 -326 -40 -437 -71 -38 -11 -95 -27 -126 -35 -101 -28 -272 -96 -389 -154
-141 -70 -134 -67 -126 -54 3 6 2 13 -4 17 -7 4 -7 12 0 24 5 10 6 21 2 25 -3
4 1 4 10 1 15 -6 48 18 48 36 0 5 9 9 20 9 11 0 20 5 20 10 0 6 -4 10 -10 10
-5 0 -10 5 -10 10 0 6 9 10 20 10 11 0 20 4 20 9 0 5 9 13 20 16 13 4 20 15
20 31 0 14 5 24 13 23 45 -6 67 2 67 23 0 12 7 30 17 40 15 17 15 18 0 18 -11
0 -17 8 -17 23 0 15 3 18 8 9 10 -15 39 15 62 63 20 39 60 77 77 71 7 -3 13
-2 13 3 0 5 -14 11 -31 15 -41 8 -47 8 -53 -3z m-359 -517 c-3 -3 -12 -4 -19
-1 -8 3 -5 6 6 6 11 1 17 -2 13 -5z m-67 -14 c8 -5 11 -10 5 -10 -5 0 -17 5
-25 10 -8 5 -10 10 -5 10 6 0 17 -5 25 -10z m-100 -64 c0 -2 -8 -10 -17 -17
-16 -13 -17 -12 -4 4 13 16 21 21 21 13z m-384 -414 c-17 -16 -18 -16 -5 5 7
12 15 20 18 17 3 -2 -3 -12 -13 -22z m-70 -91 c-26 -33 -51 -63 -56 -66 -9 -5
-36 -44 -107 -150 -18 -27 -33 -46 -33 -41 0 12 34 70 43 74 4 2 16 20 26 40
11 21 40 59 65 86 41 45 44 51 28 63 -16 12 -15 13 2 6 13 -4 17 -3 12 5 -3 6
-1 14 5 18 7 4 9 3 5 -4 -15 -25 12 -18 29 8 11 16 21 27 23 25 2 -2 -17 -31
-42 -64z m-217 -306 c-23 -38 -32 -45 -22 -17 6 16 33 52 39 52 2 0 -6 -16
-17 -35z m-52 -105 c-11 -27 -23 -48 -25 -46 -4 5 35 96 42 96 2 0 -5 -22 -17
-50z m90 -92 c-3 -8 -6 -5 -6 6 -1 11 2 17 5 13 3 -3 4 -12 1 -19z m-61 -92
c-4 -23 -35 -87 -36 -75 0 10 32 99 36 99 2 0 2 -11 0 -24z m-122 -60 c-3 -15
-8 -25 -11 -23 -2 3 -1 17 3 31 3 15 8 25 11 23 2 -3 1 -17 -3 -31z m83 -48
c-3 -8 -6 -5 -6 6 -1 11 2 17 5 13 3 -3 4 -12 1 -19z m-18 -67 c-7 -23 -14
-39 -16 -37 -3 2 1 23 8 45 7 23 14 39 16 37 3 -2 -1 -23 -8 -45z m-110 -60
c-12 -50 -24 -90 -26 -87 -2 2 6 45 17 96 12 50 24 90 26 87 2 -2 -6 -45 -17
-96z m84 -51 c3 -11 1 -18 -4 -14 -5 3 -9 12 -9 20 0 20 7 17 13 -6z m-3 -52
c0 -5 -4 -8 -10 -8 -5 0 -10 10 -10 23 0 18 2 19 10 7 5 -8 10 -18 10 -22z
m-23 -50 c-3 -7 -5 -2 -5 12 0 14 2 19 5 13 2 -7 2 -19 0 -25z m-10 -55 c-3
-10 -5 -4 -5 12 0 17 2 24 5 18 2 -7 2 -21 0 -30z m155 -3 c-2 -22 -6 -40 -8
-40 -2 0 -4 18 -4 40 0 22 3 40 8 40 4 0 6 -18 4 -40z m-159 -60 c-7 -28 -13
-25 -13 6 0 14 4 23 9 20 5 -3 7 -15 4 -26z m1136 -1300 c0 -10 -3 -8 -9 5
-12 27 -12 43 0 25 5 -8 9 -22 9 -30z m-924 -189 c3 -5 2 -12 -3 -15 -5 -3 -9
1 -9 9 0 17 3 19 12 6z m1190 -31 c3 -5 1 -10 -4 -10 -6 0 -11 5 -11 10 0 6 2
10 4 10 3 0 8 -4 11 -10z m2832 -82 c-2 -13 -4 -5 -4 17 -1 22 1 32 4 23 2
-10 2 -28 0 -40z m-2724 4 c-5 -11 -7 -11 -14 0 -7 11 -9 10 -9 -1 0 -8 -3
-12 -6 -8 -9 9 3 24 20 24 8 0 12 -6 9 -15z m-1168 -94 c19 -27 32 -48 27 -48
-4 0 -18 17 -32 38 -14 20 -31 43 -38 50 -6 8 -17 23 -23 35 -9 19 -7 18 10
-3 12 -14 37 -46 56 -72z m1125 72 c6 -11 8 -20 6 -20 -3 0 -10 9 -16 20 -6
11 -8 20 -6 20 3 0 10 -9 16 -20z m109 -76 c5 4 13 1 17 -5 4 -7 3 -9 -4 -5
-5 3 -12 1 -14 -5 -2 -6 -12 0 -23 13 -14 16 -15 19 -3 9 9 -7 22 -10 27 -7z
m198 -210 c-3 -3 -12 -4 -19 -1 -8 3 -5 6 6 6 11 1 17 -2 13 -5z m-464 -621
c3 -5 -5 -8 -18 -8 -13 0 -21 3 -18 8 2 4 10 7 18 7 8 0 16 -3 18 -7z m67 -69
c0 -2 -7 -4 -15 -4 -8 0 -15 4 -15 10 0 5 7 7 15 4 8 -4 15 -8 15 -10z m-195
-204 c-8 -13 11 -13 36 0 10 6 19 8 19 6 0 -13 -43 -26 -62 -20 -16 5 -18 8
-7 15 18 11 22 11 14 -1z"/>
<path d="M1928 5133 c7 -3 16 -2 19 1 4 3 -2 6 -13 5 -11 0 -14 -3 -6 -6z"/>
<path d="M1753 5035 c0 -7 6 -11 14 -8 7 3 13 6 13 8 0 2 -6 5 -13 8 -8 3 -14
-1 -14 -8z"/>
<path d="M4640 4976 c0 -2 8 -10 18 -17 15 -13 16 -12 3 4 -13 16 -21 21 -21
13z"/>
<path d="M4850 4776 c0 -2 8 -10 18 -17 15 -13 16 -12 3 4 -13 16 -21 21 -21
13z"/>
<path d="M291 3894 c0 -11 3 -14 6 -6 3 7 2 16 -1 19 -3 4 -6 -2 -5 -13z"/>
<path d="M910 3870 c8 -5 20 -10 25 -10 6 0 3 5 -5 10 -8 5 -19 10 -25 10 -5
0 -3 -5 5 -10z"/>
<path d="M2398 3683 c7 -3 16 -2 19 1 4 3 -2 6 -13 5 -11 0 -14 -3 -6 -6z"/>
<path d="M3821 3504 c0 -11 3 -14 6 -6 3 7 2 16 -1 19 -3 4 -6 -2 -5 -13z"/>
<path d="M1923 3195 c0 -22 2 -30 4 -17 2 12 2 30 0 40 -3 9 -5 -1 -4 -23z"/>
<path d="M5611 3124 c0 -11 3 -14 6 -6 3 7 2 16 -1 19 -3 4 -6 -2 -5 -13z"/>
<path d="M1923 3015 c0 -22 2 -30 4 -17 2 12 2 30 0 40 -3 9 -5 -1 -4 -23z"/>
<path d="M560 2960 c0 -5 5 -10 10 -10 6 0 10 5 10 10 0 6 -4 10 -10 10 -5 0
-10 -4 -10 -10z"/>
<path d="M590 2948 c0 -19 2 -20 10 -8 13 19 13 30 0 30 -5 0 -10 -10 -10 -22z"/>
<path d="M616 2943 c-4 -9 -3 -20 1 -24 4 -4 9 3 9 17 2 28 -1 31 -10 7z"/>
<path d="M5622 2920 c0 -14 2 -19 5 -12 2 6 2 18 0 25 -3 6 -5 1 -5 -13z"/>
<path d="M1924 2785 c0 -66 1 -92 3 -57 2 34 2 88 0 120 -2 31 -3 3 -3 -63z"/>
<path d="M5622 2800 c0 -14 2 -19 5 -12 2 6 2 18 0 25 -3 6 -5 1 -5 -13z"/>
<path d="M1923 2430 c-1 -129 1 -226 5 -215 4 11 5 117 2 235 l-6 215 -1 -235z"/>
<path d="M142 2605 c0 -16 2 -22 5 -12 2 9 2 23 0 30 -3 6 -5 -1 -5 -18z"/>
<path d="M3821 2494 c0 -11 3 -14 6 -6 3 7 2 16 -1 19 -3 4 -6 -2 -5 -13z"/>
<path d="M3821 2244 c0 -11 3 -14 6 -6 3 7 2 16 -1 19 -3 4 -6 -2 -5 -13z"/>
<path d="M1935 2169 c-4 -6 -5 -12 -2 -15 2 -3 7 2 10 11 7 17 1 20 -8 4z"/>
<path d="M1960 2095 c0 -1 14 -14 31 -31 17 -16 28 -22 24 -12 -4 9 -13 19
-21 22 -9 3 -13 10 -10 14 3 5 -1 9 -9 9 -8 0 -15 -1 -15 -2z"/>
<path d="M2053 2053 c4 -3 1 -13 -6 -22 -11 -14 -10 -14 5 -2 16 12 16 31 1
31 -4 0 -3 -3 0 -7z"/>
<path d="M2213 1993 c26 -2 68 -2 95 0 26 2 4 3 -48 3 -52 0 -74 -1 -47 -3z"/>
<path d="M2763 1993 c103 -2 271 -2 375 0 103 1 18 2 -188 2 -206 0 -291 -1
-187 -2z"/>
<path d="M2040 1841 c0 -14 136 -137 215 -196 74 -54 259 -152 385 -203 165
-66 411 -118 600 -127 l125 -5 -80 20 c-44 11 -120 29 -170 41 -124 29 -456
141 -590 199 -60 26 -148 70 -195 97 -171 100 -206 122 -247 152 -24 17 -43
27 -43 22z"/>
<path d="M2275 1520 c-3 -6 1 -7 9 -4 18 7 21 14 7 14 -6 0 -13 -4 -16 -10z"/>
<path d="M4660 1269 c0 -5 5 -7 10 -4 6 3 10 8 10 11 0 2 -4 4 -10 4 -5 0 -10
-5 -10 -11z"/>
<path d="M4575 1170 c-3 -6 1 -7 9 -4 18 7 21 14 7 14 -6 0 -13 -4 -16 -10z"/>
<path d="M4709 863 c-13 -16 -12 -17 4 -4 16 13 21 21 13 21 -2 0 -10 -8 -17
-17z"/>
<path d="M2273 523 c9 -2 25 -2 35 0 9 3 1 5 -18 5 -19 0 -27 -2 -17 -5z"/>
<path d="M2288 503 c7 -3 16 -2 19 1 4 3 -2 6 -13 5 -11 0 -14 -3 -6 -6z"/>
<path d="M1840 330 c8 -5 20 -10 25 -10 6 0 3 5 -5 10 -8 5 -19 10 -25 10 -5
0 -3 -5 5 -10z"/>
<path d="M2020 314 l-25 -15 25 7 c14 4 31 9 39 12 9 3 12 1 7 -6 -5 -8 1 -12
16 -12 22 1 22 1 4 15 -24 18 -34 18 -66 -1z"/>
<path d="M1905 306 c17 -7 41 -16 55 -20 20 -5 19 -3 -5 8 -16 7 -41 16 -55
20 -20 5 -19 3 5 -8z"/>
<path d="M2338 183 c7 -3 16 -2 19 1 4 3 -2 6 -13 5 -11 0 -14 -3 -6 -6z"/>
<path d="M2398 173 c7 -3 16 -2 19 1 4 3 -2 6 -13 5 -11 0 -14 -3 -6 -6z"/>
<path d="M3268 173 c7 -3 16 -2 19 1 4 3 -2 6 -13 5 -11 0 -14 -3 -6 -6z"/>
<path d="M2478 163 c7 -3 16 -2 19 1 4 3 -2 6 -13 5 -11 0 -14 -3 -6 -6z"/>
<path d="M3198 163 c7 -3 16 -2 19 1 4 3 -2 6 -13 5 -11 0 -14 -3 -6 -6z"/>
<path d="M2558 153 c7 -3 16 -2 19 1 4 3 -2 6 -13 5 -11 0 -14 -3 -6 -6z"/>
<path d="M2658 143 c6 -2 18 -2 25 0 6 3 1 5 -13 5 -14 0 -19 -2 -12 -5z"/>
<path d="M2993 143 c9 -2 23 -2 30 0 6 3 -1 5 -18 5 -16 0 -22 -2 -12 -5z"/>
</g>
</svg>
